<?xml version="1.0" encoding="UTF-8"?>
<svg id="Layer_2" data-name="Layer 2" xmlns="http://www.w3.org/2000/svg" viewBox="0 0 1147.77 315.74">
  <defs>
    <style>
      .cls-1 {
        fill: #f7f0fe;
      }
    </style>
  </defs>
  <g id="logotype">
    <g id="logomark">
      <path id="E" class="cls-1" d="m904.26,183.98v77.59h243.51v54.17h-308.42V0h307.93v54.17h-243.02v78.57h199.1v51.24h-199.1Z"/>
      <path id="F" class="cls-1" d="m761.28,0v54.17h-243.02v84.91h199.1v50.75h-199.1v125.9h-64.9V0h307.93Z"/>
      <path id="D" class="cls-1" d="m180.56,0c35.46,0,65.06,4.23,88.82,12.69,23.74,8.46,42.7,19.93,56.85,34.4,14.15,14.48,24.23,31.16,30.26,50.02,6.02,18.87,9.03,38.72,9.03,59.54s-3.34,40.83-10,60.02c-6.67,19.2-17.25,36.2-31.72,51-14.48,14.81-33.51,26.52-57.1,35.14-23.59,8.62-52.3,12.93-86.13,12.93H0V0h180.56Zm-115.66,260.1h114.19c23.42,0,42.86-2.84,58.32-8.54,15.45-5.69,27.73-13.42,36.84-23.18,9.1-9.76,15.62-20.82,19.52-33.18,3.9-12.36,5.86-25.21,5.86-38.55s-1.95-26.02-5.86-38.06c-3.9-12.03-10.42-22.77-19.52-32.21-9.11-9.43-21.4-16.91-36.84-22.45-15.46-5.53-34.89-8.3-58.32-8.3h-114.19v204.47Z"/>
    </g>
  </g>
</svg>